<svg baseProfile="tiny" xmlns="http://www.w3.org/2000/svg" viewBox="0 0 150 120">
    <path fill="#0079D2" d="M75 6.27c-3.284-.009-6.435 1.296-8.75 3.624l-33.32 33.32H3.022l7.058 16.891L3.164 77.81h30.675l32.411 32.411c4.833 4.832 12.668 4.833 17.5 0l32.411-32.411h30.675l-6.916-17.705 7.057-16.891H117.07L83.75 9.894C81.435 7.566 78.284 6.261 75 6.27z"/>
    <path fill="#FFF" d="M141.289 73.965H8.711L14.165 60 8.711 46.944h132.578L135.835 60zM37.106 45.05l32.179-32.179c3.158-3.152 8.272-3.152 11.431 0l32.179 32.179h1.426L81.428 12.159c-3.553-3.544-9.304-3.544-12.856 0L35.68 45.05h1.426zM111.985 75.859l-31.27 31.27c-3.159 3.151-8.272 3.151-11.431 0l-31.27-31.27h-1.426l31.982 31.982c3.553 3.544 9.304 3.544 12.856 0l31.982-31.982h-1.423z"/>
    <path fill="#0079D2" d="M20.146 55.96h-1.999c-.653.036-1.212-.464-1.248-1.117-.003-.049-.002-.099.001-.149-.021-.678.511-1.244 1.189-1.265.019-.001.039-.001.058 0h6.75c.678-.011 1.236.53 1.247 1.208v.058c.046.652-.446 1.219-1.098 1.265-.049.003-.099.004-.149.001h-1.999v9.207c.029.76-.563 1.4-1.323 1.429-.76.029-1.4-.563-1.429-1.323-.001-.035-.001-.071 0-.106V55.96zM27.055 55.69c-.071-.662.408-1.256 1.07-1.327.08-.009.161-.009.241-.002h2.998c2.623 0 4.24 1.175 4.24 3.849 0 1.874-1.413 2.946-3.15 3.219l2.895 3.1c.206.196.329.465.342.75.004.713-.565 1.296-1.277 1.311-.378.001-.738-.16-.989-.443l-3.781-4.582h-.035v3.696c.028.705-.521 1.299-1.226 1.327s-1.299-.521-1.327-1.226c-.001-.034-.001-.068 0-.101V55.69zm2.553 4.036h1.755c.797.076 1.504-.509 1.58-1.306.007-.07.008-.14.005-.21.044-.788-.559-1.462-1.347-1.505-.079-.004-.159-.002-.238.007h-1.755v3.014zM36.757 55.588c-.028-.706.522-1.3 1.227-1.328.706-.028 1.3.522 1.328 1.227.001.033.001.067 0 .1v5.944c-.111 1.436.963 2.691 2.399 2.802.074.006.149.008.224.008 1.477-.036 2.645-1.263 2.608-2.74-.001-.023-.001-.047-.003-.07v-5.944c-.028-.706.522-1.3 1.227-1.328.706-.028 1.3.522 1.328 1.227.001.033.001.067 0 .1v6.08c-.081 2.855-2.461 5.103-5.316 5.022-2.741-.078-4.945-2.281-5.022-5.022v-6.078zM55.691 55.86c.044.651-.447 1.214-1.098 1.258-.015.001-.029.002-.044.002-.698 0-1.243-.51-2.265-.51-.732 0-1.396.391-1.396 1.107 0 1.754 5.688.63 5.688 5.024 0 2.436-2.01 3.952-4.36 3.952-1.312 0-4.139-.307-4.139-1.908-.04-.627.436-1.168 1.064-1.207.026-.002.052-.002.078-.002.8 0 1.755.665 2.861.665 1.125 0 1.737-.631 1.737-1.465 0-2.01-5.688-.801-5.688-4.752.035-2.175 1.827-3.91 4.002-3.875.074.001.147.004.221.01.954-.002 3.339.356 3.339 1.701zM59.706 56.712H57.85c-.607.034-1.126-.43-1.16-1.037-.003-.046-.002-.092.001-.139-.019-.63.477-1.156 1.106-1.175.018-.001.035-.001.053 0h6.266c.63-.01 1.149.492 1.159 1.122v.053c.042.606-.414 1.132-1.02 1.174-.046.003-.092.004-.139.001H62.26v8.55c.028.706-.522 1.3-1.227 1.328s-1.3-.522-1.328-1.227c-.001-.034-.001-.067 0-.101v-8.549zM67.595 54.804c-.034-.728.528-1.346 1.256-1.38.064-.003.129-.001.193.005h3.522c1.786-.115 3.328 1.241 3.442 3.027.004.067.007.134.007.201.077 1.173-.612 2.262-1.705 2.696v.037c1.575.202 2.762 1.53 2.788 3.118 0 2.586-1.725 3.98-4.255 3.98h-3.779c-.748.06-1.403-.497-1.464-1.245-.004-.05-.005-.1-.004-.149l-.001-10.29zm2.752 3.797h1.43c.747.072 1.411-.475 1.483-1.222.007-.075.008-.151.003-.227-.007-.731-.605-1.319-1.336-1.312-.05 0-.1.004-.15.01h-1.43v2.751zm0 5.466h2.164c.855.093 1.623-.525 1.715-1.38.008-.072.011-.144.008-.216 0-.863-.66-1.449-1.945-1.449h-1.943v3.045zM77.958 55.588c-.028-.706.522-1.3 1.227-1.328.706-.028 1.3.522 1.328 1.227.001.033.001.067 0 .1v5.944c-.111 1.436.963 2.691 2.399 2.802.074.006.149.008.224.008 1.477-.036 2.645-1.263 2.608-2.74-.001-.023-.001-.047-.003-.07v-5.944c-.028-.706.522-1.3 1.227-1.328.706-.028 1.3.522 1.328 1.227.001.033.001.067 0 .101v6.08c-.081 2.855-2.461 5.103-5.316 5.022-2.741-.078-4.944-2.281-5.022-5.022v-6.079zM90.062 55.588c-.028-.705.521-1.3 1.226-1.328.705-.028 1.3.521 1.328 1.226.001.034.001.068 0 .101v9.674c.028.705-.521 1.3-1.226 1.328-.705.028-1.3-.521-1.328-1.226-.001-.034-.001-.068 0-.101v-9.674zM94.487 55.588c-.028-.705.521-1.3 1.226-1.328.705-.028 1.3.521 1.328 1.226.001.034.001.068 0 .101v8.55h3.032c.638-.04 1.187.445 1.227 1.083.003.048.003.095 0 .143-.037.645-.581 1.143-1.227 1.124h-4.258c-.696.041-1.293-.491-1.333-1.186-.004-.07-.002-.14.005-.21v-9.503zM102.08 55.673c-.034-.69.498-1.277 1.188-1.311.041-.002.082-.002.122 0h2.827c3.815 0 5.995 2.453 5.995 6.234.218 3.034-2.064 5.67-5.098 5.889-.242.017-.485.019-.727.004h-2.963c-.687.054-1.288-.459-1.342-1.146-.003-.044-.005-.087-.003-.131v-9.539zm2.554 8.465h1.721c2.196 0 3.201-1.618 3.201-3.662 0-2.18-1.021-3.764-3.372-3.764h-1.55v7.426zM113.095 55.843c0-.851.425-1.481 1.328-1.481h4.223c.625-.042 1.166.43 1.208 1.055.003.04.003.08.002.12.013.636-.492 1.163-1.128 1.176-.027.001-.055 0-.082-.001h-2.998v2.486h2.794c.635-.05 1.19.425 1.24 1.059.003.039.004.077.003.116.003.647-.519 1.174-1.167 1.177-.025 0-.051-.001-.076-.002h-2.794v2.589h3.152c.624-.042 1.165.43 1.207 1.054.003.04.003.081.002.121.014.636-.491 1.163-1.127 1.176-.027.001-.054 0-.081-.001h-4.395c-.685.038-1.271-.487-1.309-1.172-.002-.035-.002-.07-.001-.105l-.001-9.367zM121.317 55.69c-.071-.662.407-1.256 1.069-1.327.08-.009.162-.009.242-.002h2.998c2.623 0 4.24 1.175 4.24 3.849 0 1.874-1.413 2.946-3.15 3.219l2.895 3.1c.206.196.328.465.34.75.004.712-.564 1.296-1.276 1.311-.378.001-.738-.16-.989-.443l-3.781-4.582h-.035v3.696c.028.705-.521 1.3-1.226 1.328s-1.3-.521-1.328-1.226c-.001-.034-.001-.068 0-.102V55.69zm2.554 4.036h1.755c.797.075 1.504-.509 1.58-1.306.007-.07.008-.14.005-.21.044-.788-.559-1.462-1.347-1.505-.079-.004-.159-.002-.238.007h-1.755v3.014z"/>
    <path fill="#FFF" d="M61.7 80.681c-.003-.27.214-.49.483-.493.27-.003.49.214.493.483v1.35h2.044v-1.34c-.003-.27.214-.49.483-.493.27-.003.49.214.493.483V84.27c.003.27-.214.49-.483.493-.27.003-.49-.214-.493-.483v-1.387h-2.044v1.377c.003.27-.214.49-.483.493-.27.003-.49-.214-.493-.483V80.681zM66.746 82.475c-.064-1.219.872-2.259 2.091-2.323.05-.003.099-.004.149-.003 1.237-.001 2.24 1.002 2.241 2.239 0 .029-.001.058-.002.087.046 1.237-.919 2.278-2.156 2.324-1.237.046-2.278-.919-2.324-2.156-.001-.055-.001-.112.001-.168zm3.464 0c.116-.676-.337-1.318-1.013-1.434-.676-.116-1.318.337-1.434 1.013-.024.139-.024.282 0 .421 0 .772.397 1.454 1.224 1.454.826 0 1.223-.682 1.223-1.454zM72.234 80.681c-.019-.253.171-.474.425-.493.021-.002.042-.002.064 0 .159.014.306.089.411.208l2.064 2.673h.014v-2.388c-.003-.27.214-.49.483-.493.27-.003.49.214.493.483V84.27c.019.253-.171.474-.425.493-.021.002-.042.002-.063 0-.158-.015-.305-.09-.411-.208l-2.064-2.642h-.014v2.358c.003.27-.214.49-.483.493-.27.003-.49-.214-.493-.483v-.01l-.001-3.59zM77.379 80.776c-.035-.267.153-.511.419-.546.029-.004.059-.005.089-.004h1.614c.235-.02.441.155.461.39.001.016.002.031.001.047.002.239-.191.435-.43.436-.011 0-.021 0-.032-.001h-1.146v.924h1.068c.239-.023.451.153.474.392.001.014.002.029.002.043-.003.245-.204.441-.449.438-.009 0-.018-.001-.027-.001h-1.068v.961h1.205c.235-.02.442.155.461.39.001.015.002.03.001.045.002.24-.191.436-.431.437-.01 0-.021 0-.031-.001h-1.681c-.258.018-.482-.177-.5-.435-.001-.013-.001-.025-.001-.038v-3.477zM83.781 80.782c.014.244-.173.453-.418.467-.006 0-.013.001-.019.001-.266 0-.475-.19-.866-.19-.28 0-.534.146-.534.412 0 .651 2.175.233 2.175 1.864-.032.844-.742 1.502-1.586 1.47-.027-.001-.054-.003-.081-.005-.502 0-1.583-.113-1.583-.708-.011-.236.171-.436.407-.447.01 0 .019-.001.029 0 .306 0 .671.245 1.094.245.43 0 .665-.233.665-.543 0-.746-2.175-.297-2.175-1.763.027-.822.716-1.467 1.539-1.44.026.001.051.002.077.005.364 0 1.276.133 1.276.632zM85.962 81.098h-.709c-.227.017-.425-.154-.442-.381-.001-.018-.001-.036 0-.054-.004-.237.185-.432.421-.437h2.417c.237-.008.435.178.443.415v.021c.013.228-.161.423-.389.436-.018.001-.036.001-.054 0h-.709v3.173c.002.27-.214.491-.484.493s-.491-.214-.493-.484v-3.182zM60.829 87.664c-.023-.249.16-.471.409-.494.03-.003.061-.003.091.001h1.147c1.002 0 1.621.437 1.621 1.428-.026.652-.552 1.174-1.205 1.195L64 90.944c.078.072.125.171.129.277-.002.269-.22.486-.488.487-.143.001-.281-.059-.377-.165l-1.446-1.699h-.012v1.371c.003.27-.214.49-.483.493-.27.003-.49-.214-.493-.483v-3.561zm.976 1.497h.671c.3.033.57-.185.603-.485.003-.026.004-.052.003-.077.012-.298-.22-.548-.518-.56-.029-.001-.059 0-.088.004h-.671v1.118zM65.094 87.721c-.035-.267.153-.511.419-.546.029-.004.059-.005.089-.004h1.614c.235-.02.441.155.461.389.001.016.002.031.001.047.002.239-.191.435-.43.436-.011 0-.021 0-.032-.001H66.07v.924h1.068c.239-.023.45.152.473.391.001.015.002.03.002.044-.003.244-.203.44-.447.438-.009 0-.019 0-.028-.001H66.07v.961h1.205c.235-.02.442.155.461.39.001.015.002.03.001.045.002.24-.191.436-.431.437-.01 0-.021 0-.031-.001h-1.681c-.258.018-.482-.177-.5-.435-.001-.013-.001-.025-.001-.038v-3.476zM68.481 87.822c-.032-.074-.047-.154-.046-.234.014-.264.238-.467.502-.455.196.005.371.127.443.309l1.009 2.629 1.01-2.629c.1-.252.384-.375.636-.275.175.069.295.233.308.421.001.08-.015.16-.046.234l-1.427 3.519c-.073.266-.348.423-.615.35-.17-.047-.303-.18-.35-.35l-1.424-3.519zM73.255 87.626c-.003-.27.214-.49.483-.493.27-.003.49.214.493.483V91.215c.003.27-.214.49-.483.493-.27.003-.49-.214-.493-.483V87.626zM75.466 87.721c-.035-.267.153-.511.419-.546.029-.004.059-.005.089-.004h1.614c.235-.02.441.155.461.389.001.016.002.031.001.047.002.239-.191.435-.43.436-.011 0-.021 0-.032-.001h-1.145v.924h1.068c.239-.023.45.152.473.391.001.015.002.03.002.044-.003.244-.203.44-.447.438-.009 0-.019 0-.028-.001h-1.068v.961h1.205c.235-.02.442.155.461.39.001.015.002.03.001.045.002.24-.191.436-.431.437-.01 0-.021 0-.031-.001h-1.681c-.258.018-.482-.177-.5-.435-.001-.013-.001-.025-.001-.038v-3.476zM78.911 87.765c-.018-.07-.027-.142-.026-.215.012-.243.219-.43.462-.418.269-.015.5.187.522.455l.554 2.686h.012l.847-2.767c.088-.281.386-.437.667-.349.167.052.297.183.349.349l.846 2.767h.014l.554-2.686c.021-.268.252-.47.52-.455.243-.013.45.174.462.416v.002c.001.072-.007.145-.026.215l-.827 3.45c-.067.299-.339.507-.645.493-.293.006-.555-.182-.644-.461l-.756-2.44h-.014l-.755 2.44c-.089.28-.352.467-.645.461-.306.014-.578-.194-.645-.493l-.826-3.45zM88.422 87.727c.014.244-.173.453-.418.467-.006 0-.013.001-.019.001-.266 0-.475-.19-.866-.19-.28 0-.534.146-.534.412 0 .651 2.175.233 2.175 1.864-.032.844-.742 1.502-1.586 1.47-.027-.001-.054-.003-.081-.005-.502 0-1.583-.113-1.583-.708-.011-.236.171-.436.407-.447.01 0 .019-.001.029 0 .306 0 .671.245 1.094.245.43 0 .665-.233.665-.543 0-.746-2.175-.297-2.175-1.763.027-.822.716-1.467 1.539-1.44.026.001.051.002.077.005.364-.001 1.276.132 1.276.632zM67.972 31.611c-.023-.249.16-.471.409-.494.03-.003.061-.003.091.001h1.147c1.004 0 1.623.437 1.623 1.428-.027.653-.553 1.174-1.206 1.195l1.107 1.15c.079.071.126.171.131.277-.002.269-.22.485-.488.487-.144.001-.281-.059-.377-.165l-1.448-1.699h-.012v1.371c.003.27-.214.49-.483.493-.27.003-.49-.214-.493-.483v-3.561zm.976 1.497h.671c.301.033.571-.185.604-.486.003-.025.004-.051.003-.077.011-.298-.222-.549-.52-.56-.029-.001-.058 0-.087.004h-.671v1.119zM72.238 31.668c-.035-.267.153-.511.419-.546.029-.004.059-.005.089-.004h1.613c.235-.02.442.155.462.39.001.015.002.031.001.046.001.24-.192.435-.431.436-.011 0-.022 0-.033-.001h-1.144v.924h1.068c.238-.022.45.153.472.391.001.015.002.029.002.044-.002.244-.202.44-.446.438-.009 0-.018 0-.027-.001h-1.068v.961h1.203c.235-.02.442.155.462.39.001.015.002.03.001.045.001.24-.193.436-.433.437-.01 0-.02 0-.03-.001h-1.679c-.258.018-.482-.177-.5-.435-.001-.013-.001-.025-.001-.038v-3.476zM76.973 31.567c.099-.303.377-.513.695-.525.323.003.606.216.698.525l1.275 3.438c.031.075.049.154.054.234-.007.237-.205.424-.442.417h-.009c-.216.018-.415-.12-.473-.329l-.197-.593h-1.81l-.195.587c-.055.21-.252.351-.469.335-.254.012-.469-.185-.481-.439v-.004c.001-.072.016-.143.044-.208l1.31-3.438zm.071 2.293h1.238l-.607-1.832h-.012l-.619 1.832zM80.645 31.573c-.003-.27.214-.49.483-.493.27-.003.49.214.493.483v3.183h1.159c.239-.02.448.158.468.396.002.019.002.039.001.059-.018.243-.225.428-.469.417h-1.628c-.262.019-.49-.178-.509-.44-.002-.026-.002-.052.001-.078l.001-3.527zM51.212 38.517c-.003-.27.214-.49.483-.493s.49.214.493.483v1.35h2.044v-1.34c-.003-.27.214-.49.483-.493s.49.214.493.483V42.106c.003.27-.214.49-.483.493s-.49-.214-.493-.483v-1.387h-2.044v1.377c.003.27-.214.49-.483.493s-.49-.214-.493-.483V38.517zM56.258 40.311c-.064-1.218.871-2.258 2.089-2.323.05-.003.1-.004.15-.003 1.237-.001 2.24 1.001 2.241 2.237 0 .029-.001.059-.002.088.047 1.237-.918 2.277-2.154 2.324-1.237.047-2.277-.918-2.324-2.154-.002-.055-.002-.112 0-.169zm3.462 0c.117-.676-.336-1.318-1.012-1.434-.676-.117-1.318.336-1.434 1.012-.024.14-.024.283 0 .423 0 .772.397 1.454 1.223 1.454s1.223-.683 1.223-1.455zM62.26 38.511c.075-.29.339-.491.639-.487.291 0 .551.182.651.455l.767 2.503h.015l.767-2.503c.1-.273.36-.455.651-.455.3-.004.563.197.639.487l.607 3.527c.004.036.006.071.005.107-.019.27-.253.473-.523.454-.239-.017-.431-.204-.453-.442l-.385-2.572h-.012l-.782 2.647c-.102.287-.418.438-.705.336-.157-.056-.28-.179-.336-.336l-.782-2.647h-.013l-.385 2.572c-.026.269-.265.467-.534.441-.238-.023-.425-.215-.442-.453-.001-.036.001-.072.005-.107l.606-3.527zM68.092 38.612c-.035-.267.153-.511.419-.546.029-.004.059-.005.089-.004h1.613c.235-.02.442.155.462.39.001.015.002.031.001.046.001.24-.192.435-.431.436-.011 0-.022 0-.033-.001h-1.144v.924h1.068c.238-.022.449.153.472.391.001.015.002.029.002.044-.002.244-.202.44-.446.438-.009 0-.018 0-.027-.001h-1.068v.961h1.203c.235-.02.442.155.462.39.001.015.002.03.001.045.001.24-.193.436-.433.437-.01 0-.02 0-.03-.001h-1.679c-.258.018-.482-.177-.5-.435-.001-.013-.001-.025-.001-.038v-3.476zM71.57 40.311c-.063-1.219.874-2.259 2.093-2.323.049-.003.099-.003.148-.003 1.237 0 2.241 1.003 2.241 2.24 0 .028-.001.057-.002.085.046 1.237-.919 2.278-2.157 2.324-1.237.046-2.278-.919-2.324-2.157-.001-.054-.001-.11.001-.166zm3.465 0c.116-.676-.338-1.319-1.014-1.435s-1.319.338-1.435 1.014c-.024.139-.024.281 0 .42 0 .772.397 1.454 1.226 1.454.825.001 1.223-.681 1.223-1.453zM76.882 38.657c-.017-.07-.025-.142-.025-.215.012-.242.217-.43.46-.418h.001c.269-.015.501.187.523.455l.552 2.686h.012l.848-2.767c.088-.281.386-.437.667-.349.167.052.297.183.349.349l.846 2.767h.012l.555-2.686c.02-.268.252-.471.52-.455.242-.012.449.174.461.417v.001c.002.072-.006.145-.025.215l-.829 3.45c-.066.299-.338.508-.644.493-.293.006-.555-.182-.644-.461l-.757-2.44h-.012L79 42.139c-.089.28-.352.468-.646.461-.306.014-.578-.194-.644-.493l-.828-3.45zM83.614 38.517c-.019-.253.17-.474.423-.493.022-.002.043-.002.065 0 .158.014.305.088.409.208l2.064 2.673h.012v-2.388c-.003-.27.214-.492.484-.495.27-.003.492.214.495.484v3.6c.018.254-.172.474-.426.493-.021.002-.041.002-.062 0-.159-.015-.306-.089-.412-.208l-2.064-2.642h-.012v2.358c.003.27-.214.49-.483.493-.27.003-.49-.214-.493-.483V38.517zM88.756 38.612c-.035-.267.153-.511.419-.546.029-.004.059-.005.089-.004h1.615c.234-.02.44.154.46.389.001.016.002.032.001.048.002.239-.191.434-.43.436-.01 0-.021 0-.031-.001h-1.147v.924H90.8c.239-.023.451.152.474.39.001.015.002.03.002.045-.003.244-.203.44-.448.438-.009 0-.019-.001-.028-.001h-1.068v.961h1.206c.235-.019.441.156.46.391.001.015.002.03.001.044.002.239-.19.435-.429.437-.011 0-.021 0-.032-.001h-1.682c-.258.018-.482-.177-.5-.435-.001-.013-.001-.025-.001-.038v-3.477zM92.418 38.556c-.023-.249.16-.471.409-.494.03-.003.061-.003.091.001h1.147c1.001 0 1.62.437 1.62 1.428-.026.652-.551 1.174-1.203 1.195l1.107 1.15c.078.072.124.172.128.277-.001.269-.219.486-.488.487-.143.001-.28-.059-.377-.165l-1.445-1.699h-.012v1.371c.003.27-.214.49-.483.493-.27.003-.49-.214-.493-.483v-.01l-.001-3.551zm.977 1.496h.671c.3.032.569-.184.601-.484.003-.026.004-.052.003-.078.012-.297-.219-.548-.516-.56-.03-.001-.059 0-.088.004h-.671v1.118zM99.424 38.618c.014.244-.172.453-.416.467-.007 0-.014.001-.02.001-.266 0-.473-.19-.866-.19-.279 0-.533.146-.533.412 0 .651 2.175.233 2.175 1.864-.032.844-.743 1.502-1.587 1.47-.027-.001-.053-.003-.08-.005-.503 0-1.583-.113-1.583-.708-.011-.236.171-.436.407-.447.01 0 .019-.001.029 0 .306 0 .671.245 1.092.245.432 0 .666-.233.666-.543 0-.746-2.175-.297-2.175-1.763.027-.822.716-1.467 1.539-1.44.026.001.051.002.077.005.365 0 1.275.133 1.275.632z"/>
    <path fill="#FFCE34" d="M75.289 95.47l.705 1.428c.047.095.138.161.243.176l1.575.229c.176.026.298.189.273.365-.01.07-.043.135-.094.185l-1.14 1.111c-.076.074-.111.181-.093.285l.269 1.569c.03.175-.088.342-.263.372-.07.012-.142.001-.205-.032l-1.409-.741c-.094-.049-.206-.049-.3 0l-1.409.741c-.158.083-.353.022-.435-.135-.033-.063-.044-.135-.032-.205l.269-1.569c.018-.105-.017-.211-.093-.285l-1.14-1.111c-.127-.124-.13-.328-.006-.456.049-.051.114-.084.185-.094l1.575-.229c.105-.015.196-.081.243-.176l.705-1.428c.079-.16.272-.225.432-.146.062.031.114.082.145.146zM70.761 19.563c-.171 0-.333-.08-.436-.216l-.975-1.287c-.182-.241-.135-.583.105-.766.241-.182.583-.135.766.105l.976 1.287c.182.24.136.583-.104.765-.097.073-.213.112-.332.112M79.24 19.563c-.301.001-.546-.243-.547-.545 0-.12.039-.236.112-.332l.975-1.287c.182-.241.524-.289.765-.107s.289.524.107.765c-.001.001-.001.002-.002.002l-.975 1.287c-.103.137-.264.218-.435.217M76.496 18.231c-.033 0-.065-.003-.098-.008-.297-.054-.494-.338-.441-.635l.392-2.179c.053-.297.338-.494.635-.441.297.053.494.338.441.635l-.392 2.179c-.046.259-.273.449-.537.449M73.505 18.231c-.264 0-.491-.19-.538-.45l-.392-2.179c-.055-.297.141-.582.438-.637.297-.055.582.141.637.438 0 .002.001.003.001.005l.392 2.179c.054.297-.143.581-.44.635-.033.006-.066.009-.098.009M81.393 21.918l-6.209-3.071c-.115-.057-.251-.057-.366 0l-6.209 3.071c-.205.101-.289.348-.188.553.07.141.213.231.371.23h.716v4.571h10.986v-4.571h.716c.228 0 .413-.185.413-.413 0-.157-.089-.3-.23-.37"/>
    <path fill="#0079D2" d="M133.767 56.008c.08.068.131.165.141.27.003.16-.124.292-.283.295h-.012c-.122 0-.192-.077-.273-.169l-.717-.901v.702c-.011.133-.019.24-.129.318-.048.032-.105.05-.163.051-.089-.005-.171-.047-.229-.114-.057-.082-.082-.182-.07-.281v-1.901c.003-.082.031-.161.081-.226.09-.083.212-.121.333-.103h.539c.217-.001.429.066.605.192.185.15.29.378.284.617.002.176-.06.346-.174.48-.12.113-.267.193-.428.232l.495.538zm-1.148-.937c.082-.004.167-.004.251 0 .067.006.134.002.2-.011.123-.039.209-.149.218-.277-.001-.057-.019-.112-.052-.159-.07-.101-.189-.156-.311-.144-.104 0-.207.003-.307 0l.001.591z"/>
    <circle fill="none" stroke="#0079D2" stroke-width=".25" stroke-miterlimit="10" cx="132.905" cy="55.275" r="1.846"/>
</svg>